# xmcd
#
# Track frame offsets: 
#        150
#        17336
#        36552
#        52704
#        67903
#        88562
#        103024
#        120142
#        134166
#        145101
#
# Disc length: 2137 seconds
#
# Revision: 0
# Processed by: cddbd v1.5.2PL0 Copyright (c) Steve Scherf et al.
# Submitted via: ExactAudioCopy v0.99pb3
#
DISCID=7b08570a
DTITLE=ไชโย  ธนาวัฒน์ - หนุ่มเมืองเพชร
DYEAR=2008
DGENRE=Country
TTITLE0=หนุ่มเมืองเพชร
TTITLE1=ฟ้าหม่นคนหมอง
TTITLE2=หิ่งห้อยกับตะวัน
TTITLE3=ไอ้หนุ่มหน้าบ้าน
TTITLE4=ฝนตกแดดออก
TTITLE5=แมวขโมย
TTITLE6=รักตึ๋งหนืด
TTITLE7=คนหน้าโง่
TTITLE8=คนบ้านนอกหลอกกันเอง
TTITLE9=หนึ่งเดียวในใจ
EXTD=
EXTT0=
EXTT1=
EXTT2=
EXTT3=
EXTT4=
EXTT5=
EXTT6=
EXTT7=
EXTT8=
EXTT9=
PLAYORDER=
